<?xml version="1.0" encoding="UTF-8" standalone="no"?>
<!-- Creator: CorelDRAW 2017 -->

<svg
   xml:space="preserve"
   width="207.61mm"
   height="139.44mm"
   version="1.1"
   style="clip-rule:evenodd;fill-rule:evenodd;image-rendering:optimizeQuality;shape-rendering:geometricPrecision;text-rendering:geometricPrecision"
   viewBox="0 0 20761 13944"
   id="svg4"
   sodipodi:docname="LOGOMARK.svg"
   inkscape:version="1.4.2 (f4327f4, 2025-05-13)"
   xmlns:inkscape="http://www.inkscape.org/namespaces/inkscape"
   xmlns:sodipodi="http://sodipodi.sourceforge.net/DTD/sodipodi-0.dtd"
   xmlns="http://www.w3.org/2000/svg"
   xmlns:svg="http://www.w3.org/2000/svg"><sodipodi:namedview
   id="namedview4"
   pagecolor="#ffffff"
   bordercolor="#666666"
   borderopacity="1.0"
   inkscape:showpageshadow="2"
   inkscape:pageopacity="0.0"
   inkscape:pagecheckerboard="0"
   inkscape:deskcolor="#d1d1d1"
   inkscape:document-units="mm"
   showgrid="false"
   inkscape:zoom="1"
   inkscape:cx="408.5"
   inkscape:cy="203.5"
   inkscape:window-width="1920"
   inkscape:window-height="1027"
   inkscape:window-x="408"
   inkscape:window-y="1942"
   inkscape:window-maximized="1"
   inkscape:current-layer="Layer_x0020_1" />
 <defs
   id="defs1">
  <style
   type="text/css"
   id="style1">
   <![CDATA[
    .fil2 {fill:none}
    .fil1 {fill:#9E0505}
    .fil0 {fill:#CC6699}
   ]]>
  </style>
 </defs>
 <g
   id="Layer_x0020_1"
   inkscape:label="Layer 1"
   inkscape:groupmode="layer"
   transform="translate(-4520,-14203)">
  <metadata
   id="CorelCorpID_0Corel-Layer" />
  
  <rect
   style="clip-rule:evenodd;fill:#fffefe;fill-rule:evenodd;stroke-width:26.4583;image-rendering:optimizeQuality;shape-rendering:geometricPrecision;text-rendering:geometricPrecision"
   id="rect4"
   width="8950.4668"
   height="13943.821"
   x="11810.451"
   y="0.14405368"
   transform="translate(4520,14203)"
   ry="0" /><path
   class="fil1"
   d="m 8850,28147 v -2977 l 1184,2977 h 209 3063 208 l 1197,-2982 -9,2982 h 698 1133 v -3814 l 4975,-4956 c 153,-153 241,-337 264,-554 v -2 -2 -2 -2 -2 -2 0 -2 -2 -2 -2 -2 -2 -1 -1 -2 -2 -2 -4 -2 0 -2 -2 -2 -6 -1 -1 -6 -2 -2 -2 0 -2 -2 -2 -2 -4 -1 -1 -2 -8 -1 -1 -4 -2 -2 -2 -2 0 -2 -2 -2 -2 -2 -2 -1 -1 -2 -2 -2 -2 -2 -2 c 0,-271 -90,-497 -271,-678 -181,-194 -407,-290 -678,-290 -271,0 -497,97 -678,290 -129,129 -210,258 -242,387 -32,129 -48,245 -48,348 v 581 h -3523 v -561 c -13,-607 94,-1194 319,-1762 226,-568 558,-1065 997,-1491 439,-439 932,-768 1481,-987 548,-219 1107,-329 1674,-329 h -1787 -18 -3605 -239 -303 L 11761,21517 8688,14203 H 8144 4520 v 13938 h 18 3605 698 z m 16430,-3504 v -5812 c -16,523 -125,1037 -327,1543 -219,549 -548,1042 -987,1481 l -2768,2788 h 4083 z M 20830,14209 v 0 h -19 z"
   id="path2"
   style="display:inline" />
  
  
  
 </g>
</svg>
