/* XPM */
static char *magick[] = {
/* columns rows colors chars-per-pixel */
"48 48 64 1",
"  c Gray0",
". c #11110e",
"X c #161615",
"o c #22211d",
"O c #2b2b29",
"+ c #35342b",
"@ c #383836",
"# c #423f36",
"$ c #474439",
"% c #494947",
"& c #57564c",
"* c #585856",
"= c #6f6956",
"- c #696968",
"; c #736f61",
": c #76746b",
"> c #7a7a78",
", c #81795c",
"< c #958757",
"1 c #988d64",
"2 c #aa9a5a",
"3 c #b3a05e",
"4 c #b3a670",
"5 c #c9b66c",
"6 c #c6b672",
"7 c #d9c77a",
"8 c #e2cd7f",
"9 c #e5d17e",
"0 c #878784",
"q c #979589",
"w c #989896",
"e c #a29c84",
"r c #b2b29b",
"t c #a5a5a4",
"y c #bab6a9",
"u c #b8b8b6",
"i c #c1b999",
"p c #c2beaf",
"a c #dbc885",
"s c #d7c896",
"d c #cacabb",
"f c #dfd2a9",
"g c #e0ce8a",
"h c #ecd788",
"j c #ecdb94",
"k c #f3dd89",
"l c #f0dd94",
"z c #f1dfa1",
"x c #f5e38f",
"c c #f5e496",
"v c #ede7ba",
"b c #f6e7a7",
"n c #f7ebb7",
"m c #c8c8c6",
"M c #d9d8cc",
"N c #dadad9",
"B c #e1e1d9",
"V c #f5ebc6",
"C c #f8efd2",
"Z c #f9f2d9",
"A c #ebebe7",
"S c #f8f5e8",
"D c #fefefd",
"F c None",
/* pixels */
"FFFFFFFFFFFFFFFFFFFDDDDDDDDDDDDDDDDDDDDDFFFFFFFF",
"FFFFFFFFFFFFFFFFFDDDDDDDDDDDDDDDDDDDDDDDDDFFFFFF",
"FFFFFFFFFFFFFFFFDDDDDDDSDDDDDDDDDSDDDDDDDDDFFFFF",
"FFFFFFFFFFFFFFFDDDDDDDDSDDDDDDDDDSDDDDDDDDDDFFFF",
"FFFFFFFFFFFFFDDDDDDDDDDDDDDDDDDDDDDDDDDDDDDDDDFF",
"FFFFFFFFFFFFFDDDDDDDDDDDDDDDDDDDDDDDDDDDDDDDDDFF",
"FFFFFFFFFFFFDDDDDDDDDDDDDDDDDDDDDDDDDDDDDSDDDDDF",
"FFFFFFFFFFFDDDDDDDDDDDDDDDDDDDDDDDDDDDDDDDDDDDDD",
"FFFFFFFFFFDDDDSDDDDDDDDDDDDDDDDDDDDDDDDDDDDDDDDD",
"FFFFFFFFFFDDDDSDDDDDDDDDDDDDDDDDDDDDDDDDDDDDDDDD",
"FFFFFFFFFDDDDDDDDDDDDDDDDDSmmmADDDDDDDDDDDDDDDDD",
"FFFFFFFFFDDDDDDDDDDDDDDAw%.O@#oO*mDDDDDDDDDDDDDD",
"FFFFFFFFDDDDDDDDDDDDDDmO;gxcxlhs41*uDDDDDDDDDDDD",
"FFFFFFFFDDDDDDDDDDDDDtXpkxbnbcccj87o0DDDDDDDDDDD",
"FFFFFFFFDDDDDDDDDDDDmXMhknCZZbbxxjgf*wDDDDDDDDDS",
"FFFFFFFDDDDDDDDDDDDD%yckbSSSSSZcxxjasOmDDDDDDDDD",
"FFFFFFFDDDSDSDDDDDDu*lkbCSSSSSSncxxh7e&DDDDDDDDD",
"FFFFFFFDDDDDDDDDDDD>q9xbZSZSZSSnbxxx76ONDDDDDDDD",
"FFFFFFFDDDDDDDDDDDD-ikcnSSSSZSZnbxxx94=wDDDDDDDD",
"FFFFFFFDDDDDDDDDDDD-ihcnSSSZSZCVcccc95:>DDDDDDDD",
"FFFFFFFDDDDDDDDDDDD-rhlnSSSSSSVnzccl95=wDDDDDDDD",
"FFFFFFFDDDDDDDDDDDD>0hcnSSSSSnnVbxcl75=tDDDDDDDD",
"FFFFFFFDDDDDDDDDDDDu%hkbZSZSVbnvcxxk72XNDDDDDDDD",
"FFFFFFFDDDDDDDSDDDDS-qhcCSSSnbbbcxj95,%DDDDDDDDD",
"FFFFFFFDDDDDDDDDSDDDN@hbCSSZbzbllha73$tDDDDDDDDD",
"FFFFFFFDDDDDDDDDDDDDDOcnZZZVzlljh775<@SDDDDDDDDD",
"FFFFFFFFDDDDDSSSDSDDA#kbZVVbckha6551$tDDDDDDDDDD",
"FFFFFFFFDDDDDDDDDDDDm$knnzbljg7664:.>DDDDDDDDDDD",
"FFFFFFFFDDDDDDADDDDD-.+*&4h9773<+.%uDDDDDDDDDDDD",
"FFFFFFFFFDDDDDDDSDDD+wuAN-X1632$*NDDDDDDDDDDDDDD",
"FFFFFFFFFDDDDDDDDDDA X*0MSm*%:=ONDDDDDDDDDDDDDDD",
"FFFFFFFFFFDDDDADADD*Omt@X0m>*.@uDDDDDDDDDDDDDDDD",
"FFFFFFFFFFDDDDDDDADX%NDDmO%->.ADDDDDDDDDDDDDDDDD",
"FFFFFFFFFFFDDDASDAA .OwBDu-%@%DDDDADDDDDDDDDDDDD",
"FFFFFFFFFFFFDDSSSAX ut%.ww:-.0DDDDDDDDDDDDDDDDDF",
"FFFFFFFFFFFFDDAASD :mAAu%%>- ADDADDDDDDDDDDDDDDF",
"FFFFFFFFFFFFFDBASS  $+uAm-%*ODDDDDDDDDDDDDDDDDFF",
"FFFFFFFFFFFFFFdAAA. X.OOw:- ODDAADDDDDDDDDDDDFFF",
"FFFFFFFFFFFFFFrdNAm  .Xo@-> SDDDDADDDDDDDDDDFFFF",
"FFFFFFFFFFFFFFrrrMA.....+@O.SDADADADDDDDDDFFFFFF",
"FFFFFFFFFFFFFFrrrrd% .X.. NNDSSSSASDDDDDDFFFFFFF",
"FFFFFFFFFFFFFFrrrrrr    .AAAASAAAAADDDDFFFFFFFFF",
"FFFFFFFFFFFFFFrrrrrrrrddMNNAAAAABBMDDFFFFFFFFFFF",
"FFFFFFFFFFFFFFrrrrrrrrrrrrrdddddrrrFFFFFFFFFFFFF",
"FFFFFFFFFFFFFFrrrrrrrrrrrrrrrrrrrrrFFFFFFFFFFFFF",
"FFFFFFFFFFFFFFrrrrrrrrrrrrrrrrrrrrrFFFFFFFFFFFFF",
"FFFFFFFFFFFFFFFFFFFFFFFFFFFFFFFFFFFFFFFFFFFFFFFF",
"FFFFFFFFFFFFFFFFFFFFFFFFFFFFFFFFFFFFFFFFFFFFFFFF"
};
