/* XPM */
static char *magick[] = {
/* columns rows colors chars-per-pixel */
"48 48 56 1",
"  c Gray0",
". c #0d0f10",
"X c #190807",
"o c #181818",
"O c #290d0b",
"+ c #340e0a",
"@ c #37110e",
"# c #361210",
"$ c #272727",
"% c #353535",
"& c #41130f",
"* c #491713",
"= c #591b16",
"- c #6e190f",
"; c #6a1d15",
": c #791e15",
"> c #6b231e",
", c #7d231c",
"< c #772721",
"1 c #484848",
"2 c Gray33",
"3 c #656565",
"4 c Gray",
"5 c #961f11",
"6 c #88251c",
"7 c #99261a",
"8 c #8a2c25",
"9 c #8f3832",
"0 c #992d24",
"q c #9c3229",
"w c #9e3b33",
"e c #a62618",
"r c #b62716",
"t c #a22d22",
"y c #a53328",
"u c #a53d34",
"i c #c72a18",
"p c #d62a15",
"a c #df301c",
"s c #e92d15",
"d c #ea321b",
"f c #fb361a",
"g c #c1782e",
"h c #ff401e",
"j c #cd8622",
"k c #c99d34",
"l c #cea33a",
"z c #ddac2b",
"x c #d5a736",
"c c #deb039",
"v c #e2ae23",
"b c #e1b233",
"n c #cfa540",
"m c #d5ab44",
"M c #fefefe",
"N c None",
/* pixels */
"NNNNNNNNNNNNNNNNNNNNNNNNNNNNNNNNNNNNNNNNNNNNNNNN",
"NNNNNNNNNNNNNNNNNNNNNNNNNNNNNNNNNNNNNNNNNNNNNNNN",
"NNNNNNNNNNNNNNNNNNNNNNNNNNNNNNNNNNNNNNNNNNNNNNNN",
"NNNNNNNNNNNNNNNNNNNNNNNNNNNNNNNNNNNNNNNNNNNNNNNN",
"NNNNNNNNNNNNNNNNNNNNNNNNNNNNNNNNNNNNNNNNNNNNNNNN",
"NNNNNNNNNNNNNNNNNNNNNNNNNNNNNNNNNNNNNNNNNNNNNNNN",
"NNNNNNNNNNNNNNNNNNNNNNNNNNNNNNNNNNNNNNNNNNNNNNNN",
"NNNNNNNNNNNNNNNNNNNNNNNNNNNNNNNNNNNNNNNNNNNNNNNN",
"NNNNNNNNNNNNNNNNNNffffssddsdd NNNNNNNNNNNNNNNNNN",
"NNNNNNNNNNNNNNNffsspirrrrrrriiii NNNNNNNNNNNNNNN",
"NNNNNNNNNNNNNNfssirrr5r555eeeerrr  NNNNNNNNNNNNN",
"NNNNNNNNNNNNffsprrr55r55eeeeeeeeee6 NNNNNNNNNNNN",
"NNNNNNNNNNNffpr55r5re55eeereeeetete:  NNNNNNNNNN",
"NNNNNNNNNNffprrr5rr5e5eeeeeyyeeeett7=  NNNNNNNNN",
"NNNNNNNNNhfpree55e5ree5eeeeeyyte7ee76X NNNNNNNNN",
"NNNNNNNNNfsr5eeereereee77eeeeyyuett77;. NNNNNNNN",
"NNNNNNNNfsrrereereeryreee77eeetyytttt7@. NNNNNNN",
"NNNNNNNNfprre5ee57eeyreeee677ettyutet0=   NNNNNN",
"NNNNNNNdsre555ee5eetyyyeee7777tetyut00,X. NNNNNN",
"NNNNNNNfsreer5e7eeeeyyuyeete777tttyue06+. NNNNNN",
"NNNNNN firgvvvvvvvzzzzcccxxxxxkkxxlgtt8@ . NNNNN",
"NNNNNN fr5vvvvvvzvzzzzzxcczxxxzxxlllt00* . NNNNN",
"NNNNNN srrvvvbvvzzzzzzzxxxxxxxxxlnllt00= .$NNNNN",
"NNNNNN srrvvvzzbzzzzzzzxxlxxxxxxkkkky00=  oNNNNN",
"NNNNNN drevzvzzcczzzzxzxxkkxxmxlllnnyq0*  oNNNNN",
"NNNNNN arezvvzzzcczzxzkxxxxlllmmnnnnqq8@  oNNNNN",
"NNNNNN irejzzzzzzccxzxlkxxxxlllmmnngyq8O  oMNNNN",
"NNNNNN rreee7et777yueet77t7700qqquyqq8;  .oMNNNN",
"NNNNNN -ieeeeee0770yettt68t0tq0qqyuqq8*  .$MNNNN",
"NNNNNN .rreetetet707y0ttt6800tt0qyquq<O  .%NNNNN",
"NNNNNN .>rteetetet7tuy00t00t0qtqqqqw9*   o2NNNNN",
"NNNNNNN  6te7ttett70eutqtttq00yqqqq8>X  .$MNNNNN",
"NNNNNNN  X7eeettttt00tu0ttyqq0qqqq0<O   .1MNNNNN",
"NNNNNNNN  @7t0ttetttttuw60qyqqqqq9<#   .$4NNNNNN",
"NNNNNNNN   +677t0ttttt0u90qyqqqq8>O    o2MNNNNNN",
"NNNNNNNNN%  X;70tt0tyqq0wuqqqqq8>X    o1MNNNNNNN",
"NNNNNNNNNN    &6000q0qqqquqq88>&     .%MMNNNNNNN",
"NNNNNNNNNN   .  @>668000888<=@.     .%4MNNNNNNNN",
"NNNNNNNNNNN       X+&*==*&OX       .%4MNNNNNNNNN",
"NNNNNNNNNNNNN                    .$3MMNNNNNNNNNN",
"NNNNNNNNNNNNNN $o              .o24MMNNNNNNNNNNN",
"NNNNNNNNNNNNNNNN  o. ..   . ..$14MMNNNNNNNNNNNNN",
"NNNNNNNNNNNNNNNNNNN %$oooo$$%2MMMNNNNNNNNNNNNNNN",
"NNNNNNNNNNNNNNNNNNNNNNNNNMMMNNNNNNNNNNNNNNNNNNNN",
"NNNNNNNNNNNNNNNNNNNNNNNNNNNNNNNNNNNNNNNNNNNNNNNN",
"NNNNNNNNNNNNNNNNNNNNNNNNNNNNNNNNNNNNNNNNNNNNNNNN",
"NNNNNNNNNNNNNNNNNNNNNNNNNNNNNNNNNNNNNNNNNNNNNNNN",
"NNNNNNNNNNNNNNNNNNNNNNNNNNNNNNNNNNNNNNNNNNNNNNNN"
};
