/* XPM */
static char *magick[] = {
/* columns rows colors chars-per-pixel */
"48 48 52 1",
"  c Gray0",
". c #160a02",
"X c #1a1401",
"o c Gray8",
"O c #270806",
"+ c #251d03",
"@ c #3d0c08",
"# c #352905",
"$ c Gray17",
"% c #460d08",
"& c #4d100c",
"* c #520e07",
"= c #5c120b",
"- c #453506",
"; c #513f07",
": c #69130b",
"> c #74150d",
", c #781811",
"< c #524007",
"1 c #68510a",
"2 c #73590b",
"3 c #7b610b",
"4 c #88180d",
"5 c #871b12",
"6 c #941b0f",
"7 c #9c1e14",
"8 c #a41d0e",
"9 c #a11d11",
"0 c #b31f0f",
"q c #b92111",
"w c #ab4216",
"e c #ba5b12",
"r c #bf6f16",
"t c #924f48",
"y c #c92311",
"u c #d62513",
"i c #ea2914",
"p c #f52a13",
"a c #c26d14",
"s c #c77e15",
"d c #b9930e",
"f c #bd9312",
"g c #cc8714",
"h c #c39b0f",
"j c #c79b13",
"k c #d18a13",
"l c #dbaa16",
"z c #dfb112",
"x c #e0ae12",
"c c #e0b213",
"v c #808080",
"b c None",
/* pixels */
"bbbbbbbbbbbbbbbbbbbbbbbbbbbbbbbbbbbbbbbbbbbbbbbb",
"bbbbbbbbbbbbbbbbbbbbbbbbbbbbbbbbbbbbbbbbbbbbbbbb",
"bbbbbbbbbbbbbbbbbbbbbbbbbbbbbbbbbbbbbbbbbbbbbbbb",
"bbbbbbbbbbbbbbbbbbbbbbbbbbbbbbbbbbbbbbbbbbbbbbbb",
"bbbbbbbbbbbbbbbbbbbbbbbbbbbbbbbbbbbbbbbbbbbbbbbb",
"bbbbbbbbbbbbbbbbbbbbbbbbbbbbbbbbbbbbbbbbbbbbbbbb",
"bbbbbbbbbbbbbbbbbbbbbbbbbbbbbbbbbbbbbbbbbbbbbbbb",
"bbbbbbbbbbbbbbbbbbbbbbbbipy6vbbbbbbbbbbbbbbbbbbb",
"bbbbbbbbbbbbbbbbbbbbbbbppu84  bbbbbbbbbbbbbbbbbb",
"bbbbbbbbbbbbbbbbbbbbbb8pu896:  bbbbbbbbbbbbbbbbb",
"bbbbbbbbbbbbbbbbbbbbb8pu08894Oo bbbbbbbbbbbbbbbb",
"bbbbbbbbbbbbbbbbbbbbbip088q86:  bbbbbbbbbbbbbbbb",
"bbbbbbbbbbbbbbbbbbbb8py88ea886@  bbbbbbbbbbbbbbb",
"bbbbbbbbbbbbbbbbbbb8pu888xz887>   bbbbbbbbbbbbbb",
"bbbbbbbbbbbbbbbbbbbii088xzzk866*  bbbbbbbbbbbbbb",
"bbbbbbbbbbbbbbbbbb8py88azzzz887>   bbbbbbbbbbbbb",
"bbbbbbbbbbbbbbbbb8pu888xxdlxg876%  bbbbbbbbbbbbb",
"bbbbbbbbbbbbbbbbbip088kh .-zx686>   bbbbbbbbbbbb",
"bbbbbbbbbbbbbbbb8pu888x2 . llg876%  bbbbbbbbbbbb",
"bbbbbbbbbbbbbbbbii088xx+  Xzll887>   bbbbbbbbbbb",
"bbbbbbbbbbbbbbb8py88kxz+  +xllg876%  bbbbbbbbbbb",
"bbbbbbbbbbbbbb8pu888xxz+ X-llll897>   bbbbbbbbbb",
"bbbbbbbbbbbbbb:i088kxzx; #-llllg975&  bbbbbbbbbb",
"bbbbbbbbbbbbb8pu888xxzxX +-lllll977=   bbbbbbbbb",
"bbbbbbbbbbbbbii088zzzzc  .+lllllg77,O  bbbbbbbbb",
"bbbbbbbbbbbb8iu88kzzlzx . #llllll777= o bbbbbbbb",
"bbbbbbbbbbbbiiq88lzxlxz . <llllllg75,o  bbbbbbbb",
"bbbbbbbbbbb8iu99gzxxxlz#<X2lllllll775&  bbbbbbbb",
"bbbbbbbbbbbii088zlxlllld1#flllllllg77>   bbbbbbb",
"bbbbbbbbbb8iu88kzxxxlllllllllllllll775&  bbbbbbb",
"bbbbbbbbbbii086xxlllllzj++fllllllllr77=   bbbbbb",
"bbbbbbbbb8iy88gxxxlllzl-  1llljllljg77,O  bbbbbb",
"bbbbbbbbbti088lllllllll# .2lllllllll775&o bbbbbb",
"bbbbbbbb8iu88szzzlllxlld#3lllllljljlr77= o bbbbb",
"bbbbbbbb:iy88788999easglllllllllllllsw7,o $bbbbb",
"bbbbbbbb%y878887999778777777777777777775%   bbbb",
"bbbbbbbb.,*>:>44697777777777777777777777=   bbbb",
"bbbbbbbb     OO%%==::>>>44455555,,55555,& o bbbb",
"bbbbbbbb            ..OOO%@@@@@@@@@@$@@Oo   bbbb",
"bbbbbbbb                                    bbbb",
"bbbbbbbbb    o.                             bbbb",
"bbbbbbbbbbbbb          oo.                  bbbb",
"bbbbbbbbbbbbbbbbbbbbb                     bbbbbb",
"bbbbbbbbbbbbbbbbbbbbbbbbbbbbbbbbbbbbbbbbbbbbbbbb",
"bbbbbbbbbbbbbbbbbbbbbbbbbbbbbbbbbbbbbbbbbbbbbbbb",
"bbbbbbbbbbbbbbbbbbbbbbbbbbbbbbbbbbbbbbbbbbbbbbbb",
"bbbbbbbbbbbbbbbbbbbbbbbbbbbbbbbbbbbbbbbbbbbbbbbb",
"bbbbbbbbbbbbbbbbbbbbbbbbbbbbbbbbbbbbbbbbbbbbbbbb"
};
