/* XPM */
static char *magick[] = {
/* columns rows colors chars-per-pixel */
"24 24 13 1",
"  c Gray0",
". c #272727",
"X c #42423a",
"o c #616156",
"O c Gray44",
"+ c #969687",
"@ c #a7a796",
"# c #b5b5a7",
"$ c #d3d3bd",
"% c #dbdbc6",
"& c #e8e8d0",
"* c #eaeae2",
"= c None",
/* pixels */
"========================",
"========================",
"========================",
"========================",
"========================",
"========  ==============",
"======  $+ =============",
"==== .##$$ ====  =======",
"==== *O#%%@ =  $+ ======",
"==== &X@$%% .##$% ======",
"==== o@$%%& *O#%%@ =====",
"==== #%%%&& *.@%%& =====",
"==== +%%&&& o@%%&&# ====",
"===== %%&&& #%%%&&&@ ===",
"===== @&&&& +%%&&&&* ===",
"====== &&@   %%&&&&*@ ==",
"====== @  == @&&&&@  ===",
"======= ===== &&@  =====",
"========== == @  =======",
"=======     == =========",
"=======     ============",
"========== =============",
"========================",
"========================"
};
