/* XPM */
static char *magick[] = {
/* columns rows colors chars-per-pixel */
"24 24 12 1",
"  c Gray0",
". c Gray21",
"X c #403f3f",
"o c Gray30",
"O c #6d6d6c",
"+ c #929291",
"@ c #a5a29e",
"# c #acacac",
"$ c #d0d0ce",
"% c #e3e2de",
"& c #eeedec",
"* c None",
/* pixels */
"************************",
"************************",
"************************",
"************  **********",
"*********** &$o  *******",
"********** &&&&&$o   ***",
"********* $&&&&&&%%@ ***",
"*********.&&&&&&%%$ ****",
"*******  #&&&&%%%%o*****",
"*****  $#@+&&%%%%#  ****",
"***  $&&&&#OOO#%$.oO  **",
"** +#&&&&&&&&+OoooOo. **",
"** ####%&&&&&&%&$o... **",
"** ######$&&&%&%o...o **",
"** O@####@@+$%$....o. **",
"** OXO####@@+O....... **",
"** OooooO++@@O..X...  **",
"***  oooooXoOO..... ****",
"*****   oooOOOo..  *****",
"********   oOOXX *******",
"***********     ********",
"************************",
"************************",
"************************"
};
