/* XPM */
static char *magick[] = {
/* columns rows colors chars-per-pixel */
"24 24 6 1",
"  c Gray0",
". c #37452b",
"X c #445636",
"o c #4c603c",
"O c #546942",
"+ c None",
/* pixels */
"++++++++++++++++++++++++",
"++++++++++++++++++++++++",
"++++++++++++++++++++++++",
"++++++++++++++++++++++++",
"++++++++++++++++++++++++",
"++++++++++++++++++++++++",
"++++++++++++++ +++++++++",
"++++++++++++++  ++++++++",
"+++++++++++   oO +++++++",
"+++++++++  XoOOOO ++++++",
"++++++++ XX   OO +++++++",
"++++++++ . +++  ++++++++",
"+++++++ . ++++ +++++++++",
"+++++++  +++++++++++++++",
"+++++++  +++++++++++++++",
"++++++++ +++++++++++++++",
"+++++++++ ++++++++++++++",
"++++++++++++++++++++++++",
"++++++++++++++++++++++++",
"++++++++++++++++++++++++",
"++++++++++++++++++++++++",
"++++++++++++++++++++++++",
"++++++++++++++++++++++++",
"++++++++++++++++++++++++"
};
