/* XPM */
static char *magick[] = {
/* columns rows colors chars-per-pixel */
"24 24 17 1",
"  c #020101",
". c #280a0b",
"X c #633e3f",
"o c #704546",
"O c #7d5e61",
"+ c #885556",
"@ c #9c6d6d",
"# c #a87577",
"$ c #b58d8e",
"% c #b8aaaa",
"& c #c5999b",
"* c #c79fa0",
"= c #cfb1b2",
"- c #dccaca",
"; c #e6dada",
": c #f0e5e5",
"> c None",
/* pixels */
">>>>>>>>>>>>>>>>>>>>>>>>",
">>>>>>>>>>>>>>>>>>>>>>>>",
">>>>>>>>>>>>>>>>>>>>>>>>",
">>>>>>>>>>>>>>>>>>>>>>>>",
">>>>>>>>     . >>>>>>>>>",
">>>>>>  %=--=$O..>>>>>>>",
">>>>> $;::;;;;-#X.>>>>>>",
">>>>> -:::;;;;-=@.>>>>>>",
">>>> %:::.;;; =-$X.>>>>>",
">>>> %:;. .:  .**#.>>>>>",
">>>> -:;;     %-=$.>>>>>",
">>>> =:;;;   --=*$.>>>>>",
">>>>.%;;;   . ==&#.>>>>>",
">>>>.$=-. .- ..*$+.>>>>>",
">>>>.@*=- --*.&&@o.>>>>>",
">>>>>.&*====*&&@o.>>>>>>",
">>>>>.@$&&&&$##+o.>>>>>>",
">>>>>>..@$$#@+X..>>>>>>>",
">>>>>>>>.......>>>>>>>>>",
">>>>>>>>>>>>>>>>>>>>>>>>",
">>>>>>>>>>>>>>>>>>>>>>>>",
">>>>>>>>>>>>>>>>>>>>>>>>",
">>>>>>>>>>>>>>>>>>>>>>>>",
">>>>>>>>>>>>>>>>>>>>>>>>"
};
