/* XPM */
static char *magick[] = {
/* columns rows colors chars-per-pixel */
"24 24 14 1",
"  c Gray0",
". c #343431",
"X c #46463e",
"o c #4b4b46",
"O c #72726d",
"+ c #878779",
"@ c #969687",
"# c #a9a998",
"$ c #babaa7",
"% c #ceceb8",
"& c #dbdbc4",
"* c #ededd4",
"= c #eeeeea",
"- c None",
/* pixels */
"------------------------",
"------------------------",
"------------- ----------",
"-----------  # ---------",
"---------  @&&.---------",
"-------  #&&&&& --------",
"-----  #%&&&&&&$ -------",
"---- OO&%%&&&&&*X-------",
"---- =.$%&&&&&*** ------",
"---- ==X%&&&*****# -----",
"---- ==X@%$X  X%** -----",
"---- =o@%#.@%%+.%** ----",
"----  @%&X#*=%#+o=*% ---",
"---- O&&& %=%##+ *=*& --",
"---- @&&& %&$#@+ =**+ --",
"----- &&*o+$##+Oo*=  ---",
"----- $&*$.+#+O  & -----",
"------o***$o  oO  ------",
"------ *******&    -----",
"------- **=**# --   ----",
"------- $**%o ----   ---",
"-------- *# -------  ---",
"---------  -------------",
"------------------------"
};
