/* XPM */
static char *magick[] = {
/* columns rows colors chars-per-pixel */
"24 24 24 1",
"  c Gray0",
". c #1d231b",
"X c #282a27",
"o c #3f483c",
"O c #414a3d",
"+ c #485044",
"@ c #576852",
"# c #6a6c5a",
"$ c #677763",
"% c #799271",
"& c #847768",
"* c #87937d",
"= c #899c84",
"- c #99a88e",
"; c #a9ae97",
": c #a9b7a5",
"> c #b9c6b1",
", c #c0b09f",
"< c #c8bcae",
"1 c #cccbbe",
"2 c #d3dacd",
"3 c #dae1d6",
"4 c #e1e7dd",
"5 c None",
/* pixels */
"555555555555555555555555",
"5555555555  555555555555",
"555555555 11 55555555555",
"55555555 1111 5555555555",
"5555555 ,<,<,< 555555555",
"5555555   ,,   555555555",
"555555555 *, 55555555555",
"55555555  ;*  5555555555",
"555555  X && :  55555555",
"55555 XoX #& :#O 5555555",
"55555   X ++ :   5555555",
"55555 @:#    XO$ 5555555",
"55555 @>@:O=O*O$ 5555555",
"55555 @1@:+=+*O$ .  5555",
"55555 @1@:+=O*O$  .  555",
"55555 @>@:+=O*O$     555",
"55555 @1@:O=O        555",
"55555 %:@:@. :>4*=+;-  5",
"555555 %%% >>;>$XXX---- ",
"5555555    -3>;;;-;---- ",
"5555555555 %>23>-----%@ ",
"5555555555 #%-=-%%%$@++ ",
"55555555555 .%$$#@++OX 5",
"5555555555555.XXXXXXX555"
};
