/* XPM */
static char * folder_yellow_xpm[] = {
"16 16 9 1",
" 	g None",
".	g #000000",
"+	g #585858",
"@	g #C0C000",
"#	g #FFFF00",
"$	g #FFFFFF",
"%	g #C3C3C3",
"&	g #A0A0A0",
"*	g #808080",
"  ...           ",
" .+@#..         ",
" .$++@#.....    ",
" .$$%++@@###.   ",
" .$%$%%+@@@@+   ",
" .%$%%%%++++@.  ",
" .$%%%%%%%&%.@+ ",
" .%%%%%%%&%&.@+ ",
" .%%%&%%&%&&.@+ ",
" .%%%%%&%&&&.@+ ",
" ..*%%&%&&&&.@+ ",
"   ..*%&&&&&.@+ ",
"     ..&&&&&.@+ ",
"       ..&&&.@..",
"         ..&.@..",
"           .... "};
