/* XPM */
static char *magick[] = {
/* columns rows colors chars-per-pixel */
"48 48 48 1",
"  c Gray0",
". c #19150d",
"X c #161616",
"o c #221c12",
"O c #393939",
"+ c #2b3d61",
"@ c #354564",
"# c #654f24",
"$ c #6d5527",
"% c #715828",
"& c #735f3b",
"* c #7c622d",
"= c #7f6941",
"- c Gray39",
"; c #7e7e7f",
": c #81652e",
"> c #8a6c31",
", c #967637",
"< c #927c52",
"1 c #a7833c",
"2 c #a68748",
"3 c #a48c59",
"4 c #bd9444",
"5 c #be9b53",
"6 c #bfa267",
"7 c #bea272",
"8 c #c09745",
"9 c #c39f56",
"0 c #c9a45b",
"q c #d7aa4e",
"w c #d8ac5a",
"e c #d8b15f",
"r c #c5a668",
"t c #c9ac73",
"y c #d7b46b",
"u c #d9ba79",
"i c #f7c35a",
"p c #f7c96d",
"a c #f7cf7e",
"s c #aaaaaa",
"d c #d8be86",
"f c #dcc494",
"g c #f7d48c",
"h c #f7d899",
"j c #f7dead",
"k c #f7e2b8",
"l c Gray100",
"z c None",
/* pixels */
"zzzzzzzzzzzzzzzzzzzzzzzzzzzzzzzzzzzzzzzzzzzzzzzz",
"zzzzzzzzzzzzzzzzzzzzzzzzzzzzzzzzzzzzzzzzzzzzzzzz",
"zzzzzzzzzzzzzzzzzzzzzzzzzzzzzzzzzzzzzzzzzzzzzzzz",
"zzzzzzzzzzzzzzzzzzzzzzzzzzzzzzzzzzzzzzzzzzzzzzzz",
"zzzzzzzzzzzzzzzzzzzzzzzzzzzzzzzzzzzzzzzzzzzzzzzz",
"zzzzzzzzzzzzzzzzzzzzzzzzzzzzzzzzzzzzzzzzzzzzzzzz",
"zzzzzzzzzzzzzzzzzzzzzzzzzzzzzzzzzzzzzzzzzzzzzzzz",
"zzzzzzzzzzzzzzzzzzzzzzzzzzzzzzzzzzzzzzzzzzzzzzzz",
"zzzzzzzzzzzzzzzzzz.         zzzzzzzzzzzzzzzzzzzz",
"zzzzzzzzzzzzzzzzz   14q,1*    zzzzzzzzzzzzzzzzzz",
"zzzzzzzzzzzzzzzz  qhhkhuuu51   zzzzzzzzzzzzzzzzz",
"zzzzzzzzzzzzzzz  ijkhgiiiauy1$  zzzzzzzzzzzzzzzz",
"zzzzzzzzzzzzzz. ijji1,,1iiaye1   zzzzzzzzzzzzzzz",
"zzzzzzzzzzzzzz 6hki,    ,iipee*  Xzzzzzzzzzzzzzz",
"zzzzzzzzzzzzz. pka,   +  9iaqe1   zzzzzzzzzzzzzz",
"zzzzzzzzzzzzz 3gjq   @;; 3ipeq1   lzzzzzzzzzzzzz",
"zzzzzzzzzzzzz qai1  @;ll 3ppyq*   slzzzzzzzzzzzz",
"zzzzzzzzzzzzz iai1  ;llz 3iyyq#   slzzzzzzzzzzzz",
"zzzzzzzzzzzzz ye4:  ;lz  rpuq1   ;slzzzzzzzzzzzz",
"zzzzzzzzzzzzz       ;lz >ydwq%   ;slzzzzzzzzzzzz",
"zzzzzzzzzzzzz       sl  4gdq4   X;lzzzzzzzzzzzzz",
"zzzzzzzzzzzzzz ;;;;;;  1pdqq    ;slzzzzzzzzzzzzz",
"zzzzzzzzzzzzzzz ;;;;l  igyw,   X;lzzzzzzzzzzzzzz",
"zzzzzzzzzzzzzzzzzzzz #9fut6.  X;slzzzzzzzzzzzzzz",
"zzzzzzzzzzzzzzzzzzzz :yy0r=   ;slzzzzzzzzzzzzzzz",
"zzzzzzzzzzzzzzzzzzzz ,uew7   ;slzzzzzzzzzzzzzzzz",
"zzzzzzzzzzzzzzzzzzzz 4uyw<   ;lzzzzzzzzzzzzzzzzz",
"zzzzzzzzzzzzzzzzzzzz qdeq&  ;slzzzzzzzzzzzzzzzzz",
"zzzzzzzzzzzzzzzzzzzz 5uq4   ;lzzzzzzzzzzzzzzzzzz",
"zzzzzzzzzzzzzzzzzzzz 221*   slzzzzzzzzzzzzzzzzzz",
"zzzzzzzzzzzzzzzzzzzz XO    sslzzzzzzzzzzzzzzzzzz",
"zzzzzzzzzzzzzzzzzzzz       ;lzzzzzzzzzzzzzzzzzzz",
"zzzzzzzzzzzzzzzzzzzzz <;-;;slzzzzzzzzzzzzzzzzzzz",
"zzzzzzzzzzzzzzzzzzzzzo     lzzzzzzzzzzzzzzzzzzzz",
"zzzzzzzzzzzzzzzzzzzz uag4   zzzzzzzzzzzzzzzzzzzz",
"zzzzzzzzzzzzzzzzzzzz ahhw   zzzzzzzzzzzzzzzzzzzz",
"zzzzzzzzzzzzzzzzzzzz gge4   slzzzzzzzzzzzzzzzzzz",
"zzzzzzzzzzzzzzzzzzzz gyq4   slzzzzzzzzzzzzzzzzzz",
"zzzzzzzzzzzzzzzzzzzz qy8%   slzzzzzzzzzzzzzzzzzz",
"zzzzzzzzzzzzzzzzzzzzz       slzzzzzzzzzzzzzzzzzz",
"zzzzzzzzzzzzzzzzzzzzz      ;slzzzzzzzzzzzzzzzzzz",
"zzzzzzzzzzzzzzzzzzzzzz    ;;slzzzzzzzzzzzzzzzzzz",
"zzzzzzzzzzzzzzzzzzzzzzz s;;slzzzzzzzzzzzzzzzzzzz",
"zzzzzzzzzzzzzzzzzzzzzzzzzzzzzzzzzzzzzzzzzzzzzzzz",
"zzzzzzzzzzzzzzzzzzzzzzzzzzzzzzzzzzzzzzzzzzzzzzzz",
"zzzzzzzzzzzzzzzzzzzzzzzzzzzzzzzzzzzzzzzzzzzzzzzz",
"zzzzzzzzzzzzzzzzzzzzzzzzzzzzzzzzzzzzzzzzzzzzzzzz",
"zzzzzzzzzzzzzzzzzzzzzzzzzzzzzzzzzzzzzzzzzzzzzzzz"
};
