/* XPM */
static char *magick[] = {
/* columns rows colors chars-per-pixel */
"48 48 99 2",
"   c #010101",
".  c #1a0e0c",
"X  c #181817",
"o  c #29281b",
"O  c #282828",
"+  c #322624",
"@  c #3e3a28",
"#  c Gray22",
"$  c #423e3c",
"%  c #474432",
"&  c #56563c",
"*  c #6e6a3c",
"=  c #7e7a29",
"-  c #484848",
";  c #525244",
":  c #585857",
">  c #726f47",
",  c #7a774a",
"<  c #7e765e",
"1  c #686768",
"2  c #76726c",
"3  c #777777",
"4  c #817e4f",
"5  c #817e65",
"6  c #fe1204",
"7  c #f67604",
"8  c #e67a64",
"9  c #8a8529",
"0  c #969329",
"q  c #abab30",
"w  c #b6b638",
"e  c #8d854f",
"r  c #8a8755",
"t  c #918d56",
"y  c #9a955b",
"u  c #928e6c",
"i  c #989474",
"p  c #a19d5e",
"a  c #ba9f74",
"s  c #b6af47",
"d  c #beb64f",
"f  c #aaa766",
"g  c #acab79",
"h  c #b2ad6a",
"j  c #b5a97b",
"k  c #bbb76e",
"l  c #b7b672",
"z  c #c1ba3f",
"x  c #faae04",
"c  c #c5be4f",
"v  c #c1be76",
"b  c #feee04",
"n  c #cdc24a",
"m  c #cbc35e",
"M  c #d0c956",
"N  c #c9c67a",
"B  c #d6c769",
"V  c #d0cd7c",
"C  c #dfd46d",
"Z  c #d7d37d",
"A  c #eac664",
"S  c #e3d86d",
"D  c #eadc74",
"F  c Gray53",
"G  c #928e8c",
"H  c #9e9e8c",
"J  c #969697",
"K  c #aba78b",
"L  c #b2af8b",
"P  c #beba8b",
"I  c #b2b29a",
"U  c #a6a4a4",
"Y  c #c7be86",
"T  c #c9c589",
"R  c #cbc99b",
"E  c #d1ca8b",
"W  c #d4cc95",
"Q  c #d7d78a",
"!  c #d8d59c",
"~  c #cdc9a9",
"^  c #dad9a3",
"/  c #d8d8b8",
"(  c #e3df8f",
")  c #e4dc96",
"_  c #e8e58d",
"`  c #edea9c",
"'  c #f2ef97",
"]  c #fdfc8a",
"[  c #fcfa95",
"{  c #ebeaaa",
"}  c #eae9b8",
"|  c #f3e9a1",
" . c #f4efbf",
".. c #fdfba3",
"X. c #fbfab5",
"o. c #d2d2d4",
"O. c #fbf8cd",
"+. c #fefed6",
"@. c None",
/* pixels */
"@.@.@.@.@.@.@.@.@.@.@.@.@.@.@.@.@.@.@.@.@.@.@.@.@.@.@.@.@.@.@.@.@.@.@.@.@.@.@.@.@.@.@.@.@.@.@.@.",
"@.@.@.@.@.@.@.@.@.@.@.@.@.@.@.@.@.@.@.@.@.@.@.@.@.@.@.@.@.@.@.@.@.@.@.@.@.@.@.@.@.@.@.@.@.@.@.@.",
"@.@.@.@.@.@.@.@.@.@.@.@.@.@.@.@.@.@.@.    @.@.@.@.@.@.@.@.@.@.@.@.@.@.@.@.@.@.@.@.@.@.@.@.@.@.@.",
"@.@.@.@.@.@.@.@.@.@.@.@.@.@.@.@.@.@.@.  )     @.@.@.@.@.@.@.@.@.@.@.@.@.@.@.@.@.@.@.@.@.@.@.@.@.",
"@.@.7 @.@.@.b @.@.6 @.@.@.@.@.@.@.@.  Y |  .E     @.@.@.@.@.@.@.@.@.@.@.@.@.@.@.@.@.@.@.@.@.@.@.",
"@.@.@.@.@.x @.@.@.@.@.@.@.@.@.@.@.@.  O.+.+.+. .E       @.@.@.@.@.@.@.@.@.@.@.@.@.@.@.@.@.@.@.@.",
"@.@.@.@.6 @.@.6 @.@.@.A @.@.@.@.@.@.  +.+.+.+.+.+.+.( E         @.@.@.@.@.@.@.@.@.@.@.@.@.@.@.@.",
"@.@.@.b @.@.b x @.6 @.@.@.@.@.@.@.  Y +.+.+.+.+.+.+.+.+.O.( E a         @.@.@.@.@.@.@.@.@.@.@.@.",
"@.@.@.6 @.7 x 6 b @.+ . . @.@.@.@.- 1 : : - : 3 H / +.+.+.O. . .X.Q E j         @.@.@.@.@.@.@.@.",
"@.@.@.@.@.b 6   x   - + X O 1 2 3 1 1 : : - - # # o : I O.} }  .O.X.X.X.X.) T a         @.@.@.@.",
"@.@.b @.@.@.x 7   F 1 O - F F 3 3 3 1 1 : : - $ # # O X & ~ } } } {  .X.X.X.......( E a     @.@.",
"@.@.@.@.x @.@.  o.U 1 1 F F F F 3 3 3 1 : : - - # # O X X X K / ! ^ { ` { X...X.....[ E q   @.@.",
"@.@.@.@.@.@.  G J F F F G J J G F 3 3 1 1 : - - # # O X X .   i ! ! ^ ^ ^ ` { ` | | ' ) 0   @.@.",
"@.@.@.@.@.8   1 1 5 F J J H J J F F 3 1 1 : : - $ # O O .       L T R ^ ) ` ` ' | ` _ S 0   @.@.",
"@.@.@.@.@.@.+ $ 3 F F J J U J J F F 3 1 1 : : - $ # O O X X     o R T R R ^ ^ _ ` ' ` M 0   @.@.",
"@.@.@.@.@.@.@.- 3 F F J J U J J F F 3 1 : : : - $ # O O X X       5 P T T Q Q ^ _ ` ` 0   @.@.@.",
"@.@.@.@.@.@.@.1 3 3 F G J J J F F 3 3 3 1 : - - # # O O X X       X P T T T E Q ( ( _ 0   @.@.@.",
"@.@.@.@.@.@.@.1 3 3 3 F F F F F 3 3 1 1 : : - - # # O X X           u j P E R N T V E 9   @.@.@.",
"@.@.@.@.@.@.: 1 1 3 3 3 F F F 3 3 3 1 1 : : - - # O O X X           ; f L k T v T N n 0   @.@.@.",
"@.@.@.@.@.@.: : 1 1 1 3 3 3 3 3 3 1 1 : : - - $ # O X X X X         O r f g k k N v s =   @.@.@.",
"@.@.@.@.@.@.- : : 1 1 1 1 1 1 1 1 : : : : - $ # O O O X X           . , y f l l v N 9   @.@.@.@.",
"@.@.@.@.@.@.- : : : : 1 : 1 1 1 : : : - - $ # # O O X X               , t y g h k T 9   @.@.@.@.",
"@.@.@.@.@.@.- - - : : : : : : : : : - - - # # O O X X                 , t y h k v B 0   @.@.@.@.",
"@.@.@.@.@.@.# $ - - - - : : : ; - - - - # # O O O X X X             o e t y f h k n 9   @.@.@.@.",
"@.@.@.@.@.@.# # # - - - - - - - - - # # # O O O X X X               ; r t y y f k 9   @.@.@.@.@.",
"@.@.@.@.@.@.@.O # # # # $ $ $ $ # # # O O O X X X X                 > r y p p h k 9   @.@.@.@.@.",
"@.@.@.@.@.@.@.O O O # # # # # # # O O O O O X X                   X > e y f h h m 0   @.@.@.@.@.",
"@.@.@.@.@.@.  < O O o O O O O O O O O X X X X X                   > 4 t p h k k d 9   @.@.@.@.@.",
"@.@.@.@.@.@.  ) $ X X X O X O O X X X X X                   X   o e t y f l k V 0   @.@.@.@.@.@.",
"@.@.@.@.@.  j X.P X X X X X X X X X X   X X                     4 e y p f l m Y 0   @.@.@.@.@.@.",
"@.@.@.@.  j W X.X.g   X X   X X X X                           2 t t p f f v Q C 9       @.@.@.@.",
"@.@.@.@.  Y ....X.X.U X                                     > u t p k k N V _ M 9           @.@.",
"@.@.@.  j ..[ ......X.Q %                               % 4 y p f w v B Z _ [ 0             @.@.",
"@.@.  0 n D ............X.g @                       @ > e p f k v N Q C _ [ D 9             @.@.",
"@.@.@.    c n D ............` l , % o       o % * , y f h h v N V V _ _ ' ] M =           @.@.@.",
"@.@.@.@.@.    z c D ..........' ` ( Q E P l f l N N V T V V V Z Z _ ' ' [ [ 0           @.@.@.@.",
"@.@.@.@.@.@.@.    c w D ............' ' ` | _ Q Q ( _ _ _ _ ( _ ' ] [ ] ] S 9           @.@.@.@.",
"@.@.@.@.@.@.@.@.@.    w w B D [ ..............[ ..[ [ ' [ ' ' ] [ ] ] ] [ M =         @.@.@.@.@.",
"@.@.@.@.@.@.@.@.@.@.@.    0 w w B D [ [ ..[ ..[ ....[ [ [ ] [ ] ] [ ] ] D 9         @.@.@.@.@.@.",
"@.@.@.@.@.@.@.@.@.@.@.@.@.      0 q q B D ..[ [ [ [ [ [ [ [ ] [ [ [ ] ] M =         @.@.@.@.@.@.",
"@.@.@.@.@.@.@.@.@.@.@.@.@.@.@.@.      0 q q B D [ [ [ [ [ [ ] ] ] ] ] D 9         @.@.@.@.@.@.@.",
"@.@.@.@.@.@.@.@.@.@.@.@.@.@.@.@.@.@.@.      0 q q B S [ [ ] [ ] [ ] ] m =       @.@.@.@.@.@.@.@.",
"@.@.@.@.@.@.@.@.@.@.@.@.@.@.@.@.@.@.@.@.@.@.      0 q 0 B D | | ] | D 9       @.@.@.@.@.@.@.@.@.",
"@.@.@.@.@.@.@.@.@.@.@.@.@.@.@.@.@.@.@.@.@.@.@.@.@.      9 0 9 = D S M =     @.@.@.@.@.@.@.@.@.@.",
"@.@.@.@.@.@.@.@.@.@.@.@.@.@.@.@.@.@.@.@.@.@.@.@.@.@.@.@.        = = =     @.@.@.@.@.@.@.@.@.@.@.",
"@.@.@.@.@.@.@.@.@.@.@.@.@.@.@.@.@.@.@.@.@.@.@.@.@.@.@.@.@.@.@.@.        @.@.@.@.@.@.@.@.@.@.@.@.",
"@.@.@.@.@.@.@.@.@.@.@.@.@.@.@.@.@.@.@.@.@.@.@.@.@.@.@.@.@.@.@.@.@.@.@.@.@.@.@.@.@.@.@.@.@.@.@.@.",
"@.@.@.@.@.@.@.@.@.@.@.@.@.@.@.@.@.@.@.@.@.@.@.@.@.@.@.@.@.@.@.@.@.@.@.@.@.@.@.@.@.@.@.@.@.@.@.@."
};
