/* XPM */
static char *magick[] = {
/* columns rows colors chars-per-pixel */
"24 24 18 1",
"  c Gray0",
". c Gray31",
"X c Gray48",
"o c #8c343b",
"O c #9f3c44",
"+ c #a53e47",
"@ c #b64852",
"# c #bd5961",
"$ c #c0636b",
"% c #969793",
"& c #9fa199",
"* c #a2a39c",
"= c #b3b4af",
"- c #bfc0ba",
"; c #c3c4bc",
": c #d4d5d1",
"> c #f9f9f9",
", c None",
/* pixels */
",,,,,,,,,,,,,,,,,,,,,,,,",
",,,,,,,,,,,,,,,,,,,,,,,,",
",,,,,,,,     ,,,,,,,,,,,",
",,,,,,  :>>:=  ,,,,,,,,,",
",,,,, :>>>>>>:= ,,,,,,,,",
",,,, :>>=***:>:: ,,,,,,,",
",,, =>:%**==== := ,,,,,,",
",,, :>%&=-=;:  :: ,,,,,,",
",, =:=&  ;:;  ;::% ,,,,,",
",, :>&*=  :  ::::% ,,,,,",
",, :>&*;:   :::::% ,,,,,",
",, :>**;;% %:::::% ,,,,,",
",, =:;==;;-::::::% ,,,,,",
",,, :>==;;;:::::: ,,,,,,",
",,, =::=;;;;;:::. ,,,  ,",
",,,, ;:>;;;::::= O , @ ,",
",,,,, =::>>::=%  @  #o ,",
",,,,,,  =--=X  ,, +#O ,,",
",,,,,,,,     ,,,, @+ ,,,",
",,,,,,,,,,,,,,,, #@@ ,,,",
",,,,,,,,,,,,,,, #O  O ,,",
",,,,,,,,,,,,,, $o , + ,,",
",,,,,,,,,,,,,,   ,,,  ,,",
",,,,,,,,,,,,,,,,,,,,,,,,"
};
