/* XPM */
static char *magick[] = {
/* columns rows colors chars-per-pixel */
"24 24 9 1",
"  c Gray0",
". c #2d2d2d",
"X c #945255",
"o c #a75e5f",
"O c #b97074",
"+ c #c67d81",
"@ c #cd8689",
"# c #e4e4dc",
"$ c None",
/* pixels */
"$$$$$$$$$$$$$$$$$$$$$$$$",
"$$$$$$$$$$$$$$$$$$$$$$$$",
"$$$$$$$$$$$$$$$$$$$$$$$$",
"$$$$$$$$$$$$$$$$$$$$$$$$",
"$$$$$$$$$$$$$$$$$$$$$$$$",
"$$$$$$$$$$         $$$$$",
"$$$$$$$$$$ ######  $$$$$",
"$$$$$$$$$$ ######  $$$$$",
"$$$$$$$$   ######  $$$$$",
"$$$$$$$$ O ######  $$$$$",
"$$$      O@ ##. #  $$$$$",
"$$$ XXoOOO+@ # .#  $$$$$",
"$$$ XXooOO+@ ####  $$$$$",
"$$$      O+ #####  $$$$$",
"$$$$$$$$ O ######  $$$$$",
"$$$$$$$$   ######  $$$$$",
"$$$$$$$$$$ ####    $$$$$",
"$$$$$$$$$$ ##      $$$$$",
"$$$$$$$$$$         $$$$$",
"$$$$$$$$$$$$$$$$$$$$$$$$",
"$$$$$$$$$$$$$$$$$$$$$$$$",
"$$$$$$$$$$$$$$$$$$$$$$$$",
"$$$$$$$$$$$$$$$$$$$$$$$$",
"$$$$$$$$$$$$$$$$$$$$$$$$"
};
