/* XPM */
static char *magick[] = {
/* columns rows colors chars-per-pixel */
"24 24 8 1",
"  c Gray0",
". c Gray17",
"X c #658b5e",
"o c #90af8a",
"O c #b3c8af",
"+ c #cbdac9",
"@ c #e4ece3",
"# c None",
/* pixels */
"########################",
"########################",
"########################",
"########################",
"#########     ##########",
"######## O@@@+ #########",
"####### +@@@@@+ ########",
"###### +@O   O@O.#######",
"####### @.### @@ #######",
"#######+ #### @O #######",
"############ @@X #######",
"########### @@o ########",
"########## @@o #########",
"######### o@o ##########",
"######### @o ###########",
"#########    ###########",
"########################",
"##########  ############",
"######### @O ###########",
"######### Oo ###########",
"##########  ############",
"########################",
"########################",
"########################"
};
