/* XPM */
static char *magick[] = {
/* columns rows colors chars-per-pixel */
"24 25 15 1",
"  c Gray0",
". c #243221",
"X c #37592f",
"o c #48733e",
"O c #4f7946",
"+ c #58854d",
"@ c #65915b",
"# c #729a67",
"$ c #76a66b",
"% c #83a979",
"& c #b1c7ac",
"* c #c6d7c3",
"= c #dce6da",
"- c #f1f5f1",
"; c None",
/* pixels */
";;;;;;;;;;;;;;;;;;;;;;;;",
";;;;;;;;;;;;;;;;;;;;;;;;",
";;;;;;;;;;;;;;;;;;;;;;;;",
";;;;;;;;;;;;;;;;;;;;;;;;",
";;;;;;;;;;;;;;;;;;;;;;;;",
";;;;;;;;;;;;;;;;  ;;;;;;",
";;;;;;;;;;;;;;  * ;;;;;;",
";;;;;;;;;;;;  --* ;;;;;;",
";;;;;;;;;;  =---* ;;;;;;",
";;;;;;;;  =-----* ;;;;;;",
";;;;;; .=-------* ;;;;;;",
";;;;  &--===----*.;;;;;;",
";;;;  X+#%$$%%%%@ ;;;;;;",
";;;;;;  OO#%%%%%@ ;;;;;;",
";;;;;;;;  XO#%%%@ ;;;;;;",
";;;;;;;;;;  oO#%@ ;;;;;;",
";;;;;;;;;;;;  o$+ ;;;;;;",
";;;;;;;;;;;;;;  X ;;;;;;",
";;;;;;;;;;;;;;;;  ;;;;;;",
";;;;;;;;;;;;;;;;;;;;;;;;",
";;;;;;;;;;;;;;;;;;;;;;;;",
";;;;;;;;;;;;;;;;;;;;;;;;",
";;;;;;;;;;;;;;;;;;;;;;;;",
";;;;;;;;;;;;;;;;;;;;;;;;",
";;;;;;;;;;;;;;;;;;;;;;;;"
};
