/* XPM */
static char *magick[] = {
/* columns rows colors chars-per-pixel */
"24 24 13 1",
"  c Gray0",
". c #353533",
"X c #4e4e4c",
"o c #737371",
"O c #828274",
"+ c #949486",
"@ c #a9a997",
"# c #bcbcaa",
"$ c #d3d3bc",
"% c #dbdbc4",
"& c #ededd5",
"* c #ecece8",
"= c None",
/* pixels */
"========================",
"========================",
"============= ==========",
"===========  @ =========",
"=========  +%%.=========",
"=======  @%%%%% ========",
"=====  @$%%%%%%# =======",
"==== oo$$$%%%%%&.=======",
"==== *.#$%%%%&&&& ======",
"==== **.$$%%&&&&&@ =====",
"==== **XO$%%&&&&&* =====",
"==== *XO$%%&&&&&&&& ====",
"====  +$%%&&&&&&&&*$ ===",
"==== o%%%%&&&&&&*&&&% ==",
"==== @%%%&&&&&&&*&&&O ==",
"===== %%%&&&&&&&&&&  ===",
"===== #&&&&&&&&&&& =====",
"======X&&&&&&&&&O ======",
"====== &&&&&&&% ========",
"======= &&&&&@ =========",
"======= #&&$X ==========",
"======== &@ ============",
"=========  =============",
"========================"
};
