/* XPM */
static char *magick[] = {
/* columns rows colors chars-per-pixel */
"24 24 13 1",
"  c Gray0",
". c #6a5347",
"X c #8a6559",
"o c #a7685c",
"O c #ab776c",
"+ c #928a7a",
"@ c #9a9181",
"# c #af998a",
"$ c #b4aa96",
"% c #c59c94",
"& c #c8bda8",
"* c #dbcfb8",
"= c None",
/* pixels */
"========================",
"========================",
"========================",
"========================",
"========================",
"========================",
"========================",
"========================",
"========================",
"======      ==   =======",
"===== $*&**#  ooX   ====",
"===== .*#***** %O oo ===",
"==== $**$*&&** #o OO ===",
"=====  &@&*&$$ O. XX ===",
"==== +$$$$$+  ...   ====",
"=====    $+ ==   =======",
"======== $ =============",
"======= *$ =============",
"======= *+ =============",
"======= $+ =============",
"========   =============",
"========================",
"========================",
"========================"
};
