/* XPM */
static char *magick[] = {
/* columns rows colors chars-per-pixel */
"24 24 15 1",
"  c Gray0",
". c #353431",
"X c #53534f",
"o c #616156",
"O c #797871",
"+ c #969687",
"@ c #a09f9c",
"# c #a7a696",
"$ c #b5b4a4",
"% c #c1bdac",
"& c #cdcabb",
"* c #dbdbc7",
"= c #e8e8d1",
"- c #eaeae2",
"; c None",
/* pixels */
";;;;;;;;;;;;;;;;;;;;;;;;",
";;;;;;;;;;;;;;;;;;;;;;;;",
";;;;;;;;;;;;;;;;;;;;;;;;",
";;;;;;;;;   ;;;;;;;;;;;;",
";;;;;;;  *&& ;;;;;; ;;;;",
";;;;;  *&&&& ;;;     ;;;",
";;;  &*O.X@&& ;;     ;;;",
";; &&&o*$O.&& ;;;;; ;;;;",
";; *&&X#O.&&&& ;;;;;;;;;",
";;; &&OX#&&&&% ;  ;;;;;;",
";;; &&&&&&&&&&  &+ ;;;;;",
";;;; &&&&&&& .$$&* ;;;;;",
";;;; &&&&&&& -O$&*$ ;;;;",
";;;;; &&&&&& *.@**= ;;;;",
";;;;; &&%&&& o#**==$ ;;;",
";;;;;; &&$&$ $***===# ;;",
";;;;;; &%%%$ +**====- ;;",
";;;;;;; %$$$  **====-# ;",
";;;;;;; $$  ; $====#  ;;",
";;;;;;;;  ;;;; ==#  ;;;;",
";;;;;;;;;;;;;; #  ;;;;;;",
";;;;;;;;;;;;;;; ;;;;;;;;",
";;;;;;;;;;;;;;;;;;;;;;;;",
";;;;;;;;;;;;;;;;;;;;;;;;"
};
