/* XPM */
static char *magick[] = {
/* columns rows colors chars-per-pixel */
"24 24 18 1",
"  c Gray0",
". c #756020",
"X c #767670",
"o c #8e7d45",
"O c #a85555",
"+ c #aa6c6c",
"@ c #ad8e30",
"# c #858579",
"$ c #a6a699",
"% c #adb0af",
"& c #c48b8b",
"* c #dbca93",
"= c #c3c3bd",
"- c #d3d3d2",
"; c #dbe1e1",
": c #e9dddd",
"> c #e6e6e6",
", c None",
/* pixels */
",,,,,,,,,,,,,,,,,,,,,,,,",
",,,,,,,,,,,,,,,,,,,,,,,,",
",,,,,,,,,,,,,,,,,,,,,,,,",
",,,,,,,,,,,,,  ,,,,,,,,,",
",,,,,,,,,,,  >- ,,,,, ,,",
",,,,,,,,,  ->>> ,,,, * ,",
",,,,,,   ;>>>;>- ,, *o ,",
",,,,  ->>>:->=;; , *o ,,",
",,, ;>>>>O>->-#>; *o ,,,",
",,, ->>>>O$>$#>> *o ,,,,",
",,,, >>>>O>X>>; *o ,,,,,",
",,,, ;-O&+>>>> *o ; ,,,,",
",,,,, >:OO>>> *o ->- ,,,",
",,,,, ->>>>> *o -;-%# ,,",
",,,,,, >>>>@.  -$$$$# ,,",
",,,,,, ->;;  $$$$$$- ,,,",
",,,,,,, >$#X%--->-  ,,,,",
",,,,,,, ->>>>>>>- ,,,,,,",
",,,,,,,, >>>>>>  ,,,,,,,",
",,,,,,,, ->>>- ,,,,,,,,,",
",,,,,,,,, >;  ,,,,,,,,,,",
",,,,,,,,,,  ,,,,,,,,,,,,",
",,,,,,,,,,,,,,,,,,,,,,,,",
",,,,,,,,,,,,,,,,,,,,,,,,"
};
