/* XPM */
static char *magick[] = {
/* columns rows colors chars-per-pixel */
"24 24 17 1",
"  c Gray0",
". c Gray17",
"X c #395b31",
"o c #3f6534",
"O c #445840",
"+ c #517947",
"@ c #5b8352",
"# c #759a6b",
"$ c #7ea476",
"% c #84a97a",
"& c #93b589",
"* c #b1c7ac",
"= c #cbdac8",
"- c #dae4d8",
"; c #e1eadf",
": c #f1f5f0",
"> c None",
/* pixels */
">>>>>>>>>>>>>>>>>>>>>>>>",
">>>>>>>>>>>>>>>>>>>>>>>>",
">>>>>>>>>>>>>>>>>>>>>>>>",
">>>>>>>>>>>>>>>>>>>>>>>>",
">>>>>>>>>>>>>>>>>>>>>>>>",
">>>>>>  >>>>>>>>>>>>>>>>",
">>>>>> ;  >>>>>>>>>>>>>>",
">>>>>> ::-  >>>>>>>>>>>>",
">>>>>> ::::=  >>>>>>>>>>",
">>>>>> ::::::=  >>>>>>>>",
">>>>>> ::::::;:=. >>>>>>",
">>>>>>.:::;;;---:*  >>>>",
">>>>>> &&%%%%$%#@X  >>>>",
">>>>>> &$%%%%#+O  >>>>>>",
">>>>>> &%$%#++  >>>>>>>>",
">>>>>> &$#+X  >>>>>>>>>>",
">>>>>> &@X  >>>>>>>>>>>>",
">>>>>> o  >>>>>>>>>>>>>>",
">>>>>>  >>>>>>>>>>>>>>>>",
">>>>>>>>>>>>>>>>>>>>>>>>",
">>>>>>>>>>>>>>>>>>>>>>>>",
">>>>>>>>>>>>>>>>>>>>>>>>",
">>>>>>>>>>>>>>>>>>>>>>>>",
">>>>>>>>>>>>>>>>>>>>>>>>"
};
