/* XPM */
static char *magick[] = {
/* columns rows colors chars-per-pixel */
"24 24 22 1",
"  c Gray0",
". c #1b2a2d",
"X c #273133",
"o c #2c3d42",
"O c #324f56",
"+ c #385c64",
"@ c #45494a",
"# c #4b5c61",
"$ c #45676e",
"% c #5c8791",
"& c #629da8",
"* c #77aab4",
"= c #849192",
"- c #8ab5bd",
"; c #abb4b5",
": c #9ec2c7",
"> c #acc8cd",
", c #cdd7d9",
"< c #d5dfe0",
"1 c #d9e1e2",
"2 c #f2f4f4",
"3 c None",
/* pixels */
"333333333333333333333333",
"333333 33333333333333333",
"33333  33333333333333333",
"3333      33333333333333",
"333         33  33333333",
"3333          &o 3333333",
"33333  333   :2& 3333333",
"333333 3  ,   2&o 333333",
"333333  ,:<2  22& 333333",
"3333  *>,222  22-X 33333",
"333 :>122222 2222& 33333",
"333 %-22222 22222&o 3333",
"3333 >1222222222&&& 3333",
"3333 $*2222222&&+O&X 333",
"33333 :22221&&OX+&+& 333",
"33333 $-22&&o;22@&+&o 33",
"333333 -&&+,2211;o&o. 33",
"333333 %*&,2O,211=*X  33",
"3333333 -&O2.&11;#  3333",
"3333333 +&&<2;,=X 333333",
"33333333 O&O1=  33333333",
"333333333     3333333333",
"333333333333333333333333",
"333333333333333333333333"
};
