/* XPM */
static char *magick[] = {
/* columns rows colors chars-per-pixel */
"24 24 17 1",
"  c Gray0",
". c #373733",
"X c #46463e",
"o c #756020",
"O c #4b4b46",
"+ c #72726d",
"@ c #8e7d45",
"# c #878779",
"$ c #d5bc6b",
"% c #969687",
"& c #a9a997",
"* c #babaa7",
"= c #ceceb8",
"- c #dadac4",
"; c #eeeed5",
": c #eeeeea",
"> c None",
/* pixels */
">>>>>>>>>>>>>>>>>>>>>>>>",
">>>>>>>>>>>>>>>>  >>>>>>",
">>>>>>>>>>>>>>> $@ >>>>>",
">>>>>>>>>>> >> $# >>>>>>",
">>>>>>>>>  &  $@ >>>>>>>",
">>>>>>>  %-- $@ >>>>>>>>",
">>>>>  &--- $@ >>>>>>>>>",
">>>  &=-=- $@  >>>>>>>>>",
">> ++-==-$o  ;.>>>>>>>>>",
">> :.*=--  ;;;; >>>>>>>>",
">> ::.=---;;;;;& >>>>>>>",
">> ::.%=*X  O*;; >>>>>>>",
">> :O%-&.%==#.=;; >>>>>>",
">>  %--O%-;=*+O;;= >>>>>",
">> +--- -:=&&% ;;;- >>>>",
">> %--- =-*&&% ;;;# >>>>",
">>> --;O#*&%#+O;;  >>>>>",
">>> =--*.#&%+  - >>>>>>>",
">>>>O-;;=O  X+  >>>>>>>>",
">>>> ;;;;;:;=    >>>>>>>",
">>>>> ;;;;;& >>   >>>>>>",
">>>>> *;;=O >>>>   >>>>>",
">>>>>> ;& >>>>>>>  >>>>>",
">>>>>>>  >>>>>>>>>>>>>>>"
};
