/* XPM */
static char *magick[] = {
/* columns rows colors chars-per-pixel */
"24 24 26 1",
"  c Gray0",
". c #1b2a2d",
"X c #273133",
"o c #2c3d42",
"O c #324f56",
"+ c #385c64",
"@ c #756020",
"# c #45494a",
"$ c #4b5c61",
"% c #45676e",
"& c #5c8791",
"* c #629da8",
"= c #77aab4",
"- c #8e7d45",
"; c #d6bd6b",
": c #94918d",
"> c #8db6be",
", c #abb4b5",
"< c #9ec2c7",
"1 c #abc8cd",
"2 c #cbd7da",
"3 c #d5dfe0",
"4 c #d9e1e2",
"5 c #e1e3dc",
"6 c #f0f2f2",
"7 c None",
/* pixels */
"777777777777777777777777",
"777777777777777777777777",
"7777777777777777777 7777",
"777777777777777777 ; 777",
"7777777777777  77 ;- 777",
"77777777777  *o  ;- 7777",
"777777777  216* ;- 77777",
"7777777  21266 ;- 777777",
"77777  212666 ;- 7777777",
"777  =136666 ;- . 777777",
"77 >1466:66 ;- 6* 777777",
"77 &>66:66 ;- 66*o 77777",
"777 166:6;@  56*** 77777",
"777 %=66:  66**+O*o 7777",
"7777 <66:64**Oo+*+* 7777",
"7777 %=66**X,66#*+*o 777",
"77777 >**O26655,o*O. 777",
"77777 &=*26O4555:*X  777",
"777777 >*O6.=45,$  77777",
"777777 +**36,3:. 7777777",
"7777777 O*+5:  777777777",
"77777777     77777777777",
"777777777777777777777777",
"777777777777777777777777"
};
