/* XPM */
static char *magick[] = {
/* columns rows colors chars-per-pixel */
"24 24 6 1",
"  c Gray0",
". c #415b39",
"X c #4c6b43",
"o c #5b8050",
"O c #648c58",
"+ c None",
/* pixels */
"++++++++++++++++++++++++",
"++++++++++++++++++++++++",
"++++++++++++++++++++++++",
"++++++++++++++++++++++++",
"++++  ++   +++  ++++++++",
"+++ ++ + ++ + ++ +++++++",
"+++    +   ++ ++++++++++",
"+++ ++ + ++ + ++ +++++++",
"+++ ++ +   +++  ++++  ++",
"+++++++++++++++++++  +++",
"+++++++++++  +++++  ++++",
"+++++++++++ X +++ . ++++",
"++++++++++++ X + X +++++",
"++++++++++++ XX o. +++++",
"+++++++++++++ XOX ++++++",
"+++++++++++++ XO. ++++++",
"++++++++++++++ X +++++++",
"++++++++++++++ X +++++++",
"+++++++++++++++ ++++++++",
"++++++++++++++++++++++++",
"++++++++++++++++++++++++",
"++++++++++++++++++++++++",
"++++++++++++++++++++++++",
"++++++++++++++++++++++++"
};
