/* XPM */
static char *magick[] = {
/* columns rows colors chars-per-pixel */
"24 24 17 1",
"  c Gray0",
". c #3b4a4d",
"X c #49575a",
"o c #465e63",
"O c #526c72",
"+ c #617376",
"@ c #758d92",
"# c #779fa8",
"$ c #7ea4ac",
"% c #8c9596",
"& c #8daeb5",
"* c #aab0b2",
"= c #a0bcc1",
"- c #b5c9cd",
"; c #d3d8d9",
": c #f6f8f8",
"> c None",
/* pixels */
">>>>>>>>>>>>>>>>>>>>>>>>",
">>>>>>>>>>>>>>>>>>>>>>>>",
">>>>>>>>>>>>>>>>>>>>>>>>",
">>>>>>>>>>>>>>  >>>>>>>>",
">>>>>>>>>>>>  #X >>>>>>>",
">>>>>>>>>>  --:# >>>>>>>",
">>>>>>>>  --;::#X >>>>>>",
">>>>>>  --;::::;# >>>>>>",
">>>>  $--:::::::&X >>>>>",
">>> &-;:::::::::;# >>>>>",
">>> @&:::::::::::#o >>>>",
">>>> -::::::::::### >>>>",
">>>> +&:::::::##OO#X >>>",
">>>>> =;:::;$#oXO#O# >>>",
">>>>> +&::##o*:;O#O#X >>",
">>>>>> &##O;::;;*o#o. >>",
">>>>>> @&#-:O;:;;%%X  >>",
">>>>>>> &#O:.$;;*+  >>>>",
">>>>>>> O##;;*;%X >>>>>>",
">>>>>>>> o#O;%  >>>>>>>>",
">>>>>>>>>     >>>>>>>>>>",
">>>>>>>>>>>>>>>>>>>>>>>>",
">>>>>>>>>>>>>>>>>>>>>>>>",
">>>>>>>>>>>>>>>>>>>>>>>>"
};
