/* XPM */
static char *magick[] = {
/* columns rows colors chars-per-pixel */
"24 24 20 1",
"  c Gray0",
". c #272726",
"X c #3f453d",
"o c #414a3d",
"O c #465143",
"+ c #586853",
"@ c #63735a",
"# c #687b63",
"$ c #779070",
"% c #83947d",
"& c #889c83",
"* c #99a88e",
"= c #a3b197",
"- c #aabaa6",
"; c #b9c6b1",
": c #c3cebf",
"> c #d3dacd",
", c #dae1d6",
"< c #e1e7dd",
"1 c None",
/* pixels */
"111111111111111111111111",
"111111111111111111111111",
"111111111111111111111111",
"111111111111111111111111",
"1111111        111111111",
"11111. -;<%*O=*  1111111",
"1111 ;;=;@...**** 111111",
"1111 *>;====***** 111111",
"1111 $->,;=****$@ 111111",
"1111 +$*&*$$$@@OO 111111",
"11111 .$##++OOo. 1111111",
"11111 +........# 1111111",
"11111 +;+-O&O%X# 1111111",
"11111 +>+-X&O%o#  . 1111",
"11111 +:+=O&O%o#  .  111",
"11111 +;+-O&o%o#     111",
"11111 +:+-O&o%X#  .  111",
"11111 %-+-O&O%O#    1111",
"111111 $$$@$@$#   111111",
"1111111         11111111",
"111111111111111111111111",
"111111111111111111111111",
"111111111111111111111111",
"111111111111111111111111"
};
